<svg width="474" height="485" viewBox="0 0 474 485" fill="none" xmlns="http://www.w3.org/2000/svg"><path d="M430.53 369.839L428.684 371.791C427.164 369.459 424.721 367.236 421.355 365.283L264.088 274.606C252.96 268.207 236.185 267.501 226.576 273.033L63.935 366.856C62.3064 367.778 60.9492 368.863 59.9721 370.056L57.4749 368.32V376.021C57.3664 380.36 60.4607 384.97 66.6493 388.549L223.862 479.227C234.991 485.626 251.765 486.331 261.374 480.799L424.015 386.976C428.467 384.428 430.584 380.957 430.53 377.377V369.839Z" fill="url(#paint0_linear)"/><path d="M424.015 379.438L261.374 473.261C251.765 478.793 234.937 478.088 223.862 471.688L66.5952 380.957C55.4665 374.557 54.2722 364.85 63.8809 359.318L226.522 265.495C236.131 259.963 252.96 260.668 264.034 267.068L421.301 357.799C432.43 364.199 433.678 373.852 424.015 379.438Z" fill="url(#paint1_linear)"/><path d="M137.493 261.482V71.3955L0.800293 150.196V340.336L137.493 261.482Z" fill="url(#paint2_linear)"/><path d="M300.026 63.3701L431.507 139.188V312.895L300.026 237.132V63.3701Z" fill="url(#paint3_linear)"/><path d="M161.162 38.8564L29.6807 114.728V288.436L161.162 212.619V38.8564Z" fill="url(#paint4_linear)"/><path d="M56.4436 250.635L48.5179 255.191V246.025C48.5179 244.941 47.8121 244.561 46.835 245.103C45.9121 245.592 45.1521 246.893 45.1521 247.869V257.035L37.2263 261.59C36.3035 262.078 35.5435 263.326 35.5435 264.356C35.5435 265.387 36.2492 265.82 37.2263 265.278L45.1521 260.723V269.888C45.1521 270.973 45.8578 271.352 46.835 270.81C47.7578 270.322 48.5179 269.02 48.5179 268.044V258.879L56.4436 254.323C57.3665 253.835 58.1265 252.533 58.1265 251.557C58.1265 250.581 57.3665 250.093 56.4436 250.635Z" fill="url(#paint5_linear)"/><path d="M303.337 172.54C303.337 173.516 304.043 174.872 305.02 175.306L312.946 179.862V189.027C312.946 190.003 313.652 191.359 314.629 191.793C315.552 192.335 316.312 191.901 316.312 190.871V181.705L324.238 186.261C325.16 186.803 325.92 186.37 325.92 185.339C325.92 184.309 325.215 183.007 324.238 182.573L316.312 178.018V168.852C316.312 167.876 315.606 166.52 314.629 166.086C313.706 165.544 312.946 165.978 312.946 167.008V176.174L305.02 171.618C304.043 171.076 303.337 171.51 303.337 172.54Z" fill="url(#paint6_linear)"/><path d="M336.995 223.844V33.7041L473.687 112.559V302.645L336.995 223.844Z" fill="url(#paint7_linear)"/><path d="M443.287 117.006V60.8747C443.287 55.126 440.193 49.8112 435.198 46.9368L361.043 4.09288C354.42 0.296582 346.169 5.06907 346.169 12.6617V128.069" stroke="url(#paint8_linear)" stroke-width="3" stroke-miterlimit="10" stroke-linecap="round"/><path d="M45.4233 128.666V68.6845C45.4233 62.5019 48.7348 56.8617 54.0548 53.7705L133.367 7.99792C140.424 3.93046 149.273 9.02835 149.273 17.1633V109.739" stroke="url(#paint9_linear)" stroke-width="3" stroke-miterlimit="10" stroke-linecap="round"/><path d="M156.493 97.5361V157.518C156.493 163.7 153.182 169.34 147.862 172.432L68.5494 218.204C61.4922 222.272 52.6436 217.174 52.6436 209.039V116.463" stroke="url(#paint10_linear)" stroke-width="3" stroke-miterlimit="10" stroke-linecap="round"/><path d="M427.218 218.963C427.218 219.831 427.87 221.024 428.684 221.404L435.633 225.417V233.444C435.633 234.311 436.284 235.504 437.098 235.884C437.913 236.372 438.564 235.992 438.564 235.071V227.044L445.513 231.057C446.327 231.545 446.978 231.166 446.978 230.244C446.978 229.322 446.327 228.183 445.513 227.803L438.564 223.79V215.764C438.564 214.896 437.913 213.703 437.098 213.323C436.284 212.835 435.633 213.215 435.633 214.137V222.163L428.684 218.15C427.87 217.662 427.218 218.096 427.218 218.963Z" fill="url(#paint11_linear)"/><path d="M438.401 254.378C438.401 255.408 439.161 256.764 440.084 257.198L448.118 261.862V271.19C448.118 272.22 448.878 273.576 449.801 274.01C450.724 274.552 451.484 274.118 451.484 273.088V263.76L459.518 268.424C460.441 268.966 461.201 268.532 461.201 267.502C461.201 266.417 460.441 265.116 459.518 264.682L451.484 260.018V250.69C451.484 249.659 450.724 248.303 449.801 247.87C448.878 247.327 448.118 247.761 448.118 248.792V258.12L440.084 253.456C439.161 252.913 438.401 253.347 438.401 254.378Z" fill="url(#paint12_linear)"/><path d="M96.2898 158.873V76.3311L29.6807 114.728V197.27L96.2898 158.873Z" fill="url(#paint13_linear)"/><path d="M7.26025 105.128V200.795L90.4267 152.799V57.0781L7.26025 105.128Z" fill="url(#paint14_linear)"/><path d="M39.7778 88.8584L43.9579 91.2447V77.9034L39.7778 75.4629V88.8584Z" fill="url(#paint15_linear)"/><path d="M54.4352 85.2251L43.958 91.2449V77.9036L54.4352 71.8838V85.2251Z" fill="url(#paint16_linear)"/><path d="M50.254 69.4434L54.434 71.8838L43.9568 77.9037L39.8311 75.4632L50.254 69.4434Z" fill="url(#paint17_linear)"/><path d="M66.3236 103.23C68.0608 105.833 69.0379 109.467 69.0379 113.914C69.0379 127.96 59.1578 145.043 46.9977 152.04C44.2834 153.612 41.6234 154.534 39.2348 154.914L39.2891 157.571L31.8519 153.829C27.6175 151.66 24.9575 146.616 24.9575 139.349C24.9575 125.303 34.8376 108.219 46.9977 101.223C53.0778 97.7524 58.5064 97.3728 62.5236 99.6506L69.4179 103.121L66.3236 103.23Z" fill="url(#paint18_linear)"/><path d="M53.8922 104.64C41.7321 111.636 31.8521 128.719 31.8521 142.765C31.8521 156.812 41.7321 162.506 53.8922 155.456C66.0524 148.406 75.9324 131.376 75.9324 117.33C75.9324 103.284 66.0524 97.5894 53.8922 104.64Z" fill="url(#paint19_linear)"/><path d="M36.249 140.217C36.249 151.443 44.1205 155.944 53.8378 150.359C63.555 144.773 71.4265 131.106 71.4265 119.934C71.4265 108.762 63.555 104.206 53.8378 109.792C44.1748 115.378 36.249 128.991 36.249 140.217Z" fill="url(#paint20_linear)"/><path d="M43.0347 146.074L65.672 133.004V112.938L43.0347 126.008V146.074Z" fill="url(#paint21_linear)"/><path d="M65.672 112.938L54.3805 132.787L43.0347 126.008L65.672 112.938Z" fill="#fff"/><path d="M58.2352 107.894C64.7495 107.135 69.3638 111.799 69.3638 120.368C69.3638 131.594 61.4923 145.206 51.7751 150.792C50.2551 151.66 48.7894 152.311 47.3779 152.69C49.3865 152.473 51.558 151.714 53.838 150.358C63.5552 144.772 71.4267 131.106 71.4267 119.934C71.481 110.443 65.8352 105.725 58.2352 107.894Z" fill="url(#paint22_linear)"/><path d="M397.307 67.8164V150.467L472.873 194.071V111.42L397.307 67.8164Z" fill="url(#paint23_linear)"/><path d="M473.85 95.638V181.489L403.604 140.977V55.0176L473.85 95.638Z" fill="url(#paint24_linear)"/><path d="M422.496 94.4991C420.921 96.9396 419.999 100.248 419.999 104.369C419.999 117.331 429.119 133.167 440.41 139.621C442.962 141.085 445.35 141.953 447.576 142.278L447.522 144.719L454.416 141.248C458.325 139.241 460.767 134.577 460.767 127.852C460.767 114.891 451.647 99.0547 440.356 92.6009C434.764 89.347 429.716 89.0758 426.024 91.1367L419.673 94.3364L422.496 94.4991Z" fill="url(#paint25_linear)"/><path d="M434.004 95.8004C445.242 102.308 454.416 118.09 454.416 131.052C454.416 144.013 445.296 149.328 434.004 142.82C422.767 136.312 413.593 120.531 413.593 107.569C413.593 94.553 422.767 89.2924 434.004 95.8004Z" fill="url(#paint26_linear)"/><path d="M451.05 129.154C451.05 140 443.396 144.447 434.004 138.97C424.559 133.547 416.958 120.314 416.958 109.467C416.958 98.6208 424.613 94.1737 434.004 99.6512C443.45 105.074 451.05 118.307 451.05 129.154Z" fill="url(#paint27_linear)"/><path d="M440.084 137.451C438.13 137.451 435.958 136.801 433.733 135.499C426.078 131.052 419.835 120.26 419.835 111.42C419.835 107.027 421.355 103.773 424.07 102.2C426.784 100.627 430.421 100.953 434.221 103.176C441.876 107.623 448.119 118.416 448.119 127.256C448.119 131.648 446.599 134.902 443.884 136.475C442.744 137.126 441.496 137.451 440.084 137.451ZM427.924 102.146C426.676 102.146 425.59 102.417 424.613 103.014C422.17 104.424 420.813 107.406 420.813 111.474C420.813 120.043 426.838 130.455 434.276 134.74C437.804 136.746 441.061 137.126 443.504 135.716C445.947 134.306 447.304 131.323 447.304 127.256C447.304 118.687 441.278 108.274 433.841 103.99C431.67 102.742 429.716 102.146 427.924 102.146Z" fill="#fff"/><path d="M436.61 136.367C435.687 136.367 434.71 136.096 433.733 135.499C428.847 132.679 424.83 123.188 424.83 114.348C424.83 108.762 426.404 104.478 429.118 102.96C430.638 102.092 432.43 102.146 434.221 103.176C439.107 105.997 443.124 115.487 443.124 124.327C443.124 129.913 441.55 134.198 438.835 135.716C438.184 136.15 437.424 136.367 436.61 136.367ZM431.398 103.231C430.747 103.231 430.15 103.393 429.607 103.719C427.272 105.075 425.807 109.142 425.807 114.294C425.807 122.863 429.607 131.974 434.275 134.686C435.795 135.553 437.207 135.608 438.455 134.903C440.79 133.547 442.255 129.479 442.255 124.327C442.255 115.758 438.455 106.647 433.787 103.936C432.973 103.502 432.158 103.231 431.398 103.231Z" fill="#fff"/><path d="M434.438 135.662C434.221 135.662 434.004 135.608 433.733 135.445C431.398 134.089 429.987 125.141 429.987 117.277C429.987 111.528 430.747 104.315 432.864 103.122C433.298 102.851 433.733 102.905 434.167 103.122C436.501 104.478 437.913 113.426 437.913 121.29C437.913 127.039 437.153 134.252 435.035 135.445C434.873 135.608 434.655 135.662 434.438 135.662ZM433.57 103.881C433.515 103.881 433.461 103.881 433.407 103.936C432.267 104.586 431.018 109.522 431.018 117.277C431.018 126.551 432.701 133.764 434.275 134.686C434.438 134.794 434.547 134.74 434.655 134.686C435.795 134.035 437.044 129.1 437.044 121.344C437.044 112.07 435.361 104.858 433.787 103.936C433.678 103.881 433.624 103.881 433.57 103.881Z" fill="#fff"/><path d="M442.473 132.516C440.03 132.516 436.99 131.54 433.787 129.696C426.133 125.249 419.89 117.06 419.89 111.42C419.89 109.359 420.704 107.786 422.224 106.864C424.884 105.346 429.39 106.051 434.221 108.871C441.876 113.318 448.118 121.507 448.118 127.147C448.118 129.208 447.304 130.781 445.784 131.703C444.861 132.245 443.721 132.516 442.473 132.516ZM425.535 107.027C424.45 107.027 423.473 107.244 422.713 107.678C421.464 108.383 420.813 109.684 420.813 111.42C420.813 116.789 426.838 124.653 434.275 128.937C438.781 131.54 443.016 132.299 445.35 130.944C446.598 130.239 447.25 128.937 447.25 127.202C447.25 121.832 441.224 113.969 433.787 109.684C430.747 107.949 427.815 107.027 425.535 107.027Z" fill="#fff"/><path d="M446.164 128.666C443.341 128.666 437.967 126.225 433.787 123.785C426.947 119.826 419.89 114.131 419.89 111.474C419.89 110.986 420.107 110.552 420.541 110.335C422.658 109.142 429.227 112.07 434.275 114.945C441.116 118.904 448.173 124.598 448.173 127.256C448.173 127.744 447.956 128.177 447.521 128.394C447.141 128.557 446.707 128.666 446.164 128.666ZM421.844 110.931C421.464 110.931 421.193 110.986 421.03 111.094C420.921 111.148 420.813 111.257 420.813 111.474C420.813 113.318 426.187 118.361 434.275 122.971C441.007 126.876 445.893 128.232 447.087 127.581C447.196 127.527 447.304 127.418 447.304 127.201C447.304 125.357 441.93 120.314 433.841 115.704C428.087 112.45 423.744 110.931 421.844 110.931Z" fill="#fff"/><path d="M435.47 139.024C426.024 133.601 418.424 120.368 418.424 109.522C418.424 102.146 421.953 97.7531 427.11 97.3734C421.084 96.9396 416.904 101.441 416.904 109.522C416.904 120.368 424.559 133.601 433.95 139.024C436.99 140.76 439.813 141.519 442.31 141.302C440.247 141.139 437.913 140.434 435.47 139.024Z" fill="url(#paint28_linear)"/><path d="M448.119 85.9305L444.265 88.1541V75.789L448.119 73.5654V85.9305Z" fill="url(#paint29_linear)"/><path d="M434.602 82.5682L444.264 88.1542V75.7891L434.602 70.2031V82.5682Z" fill="url(#paint30_linear)"/><path d="M438.456 67.9795L434.602 70.203L444.264 75.789L448.119 73.5655L438.456 67.9795Z" fill="url(#paint31_linear)"/><path d="M336.995 155.294L387.426 184.417V108.274L336.995 79.1514V155.294Z" fill="url(#paint32_linear)"/><path d="M316.474 56.3731L312.131 53.9326V131.648L377.872 169.611V91.8414L316.474 56.3731Z" fill="url(#paint33_linear)"/><path d="M328.146 89.9437C326.571 92.3299 325.703 95.5839 325.703 99.6513C325.703 112.396 334.66 127.961 345.734 134.306C348.231 135.716 350.62 136.584 352.791 136.909L352.737 139.35L359.523 135.933C363.377 133.927 365.766 129.371 365.766 122.755C365.766 110.01 356.809 94.445 345.734 88.0998C340.251 84.9542 335.257 84.6288 331.62 86.6355L325.377 89.781L328.146 89.9437Z" fill="url(#paint34_linear)"/><path d="M339.492 91.2454C350.566 97.6449 359.523 113.155 359.523 125.9C359.523 138.645 350.566 143.851 339.492 137.452C328.417 131.052 319.406 115.542 319.406 102.797C319.406 89.9981 328.417 84.846 339.492 91.2454Z" fill="url(#paint35_linear)"/><path d="M355.615 123.568C355.615 133.764 348.449 137.886 339.6 132.788C330.752 127.69 323.586 115.325 323.586 105.129C323.586 94.9332 330.752 90.8115 339.6 95.9094C348.449 101.007 355.615 113.372 355.615 123.568Z" fill="url(#paint36_linear)"/><path d="M334.389 102.255C334.389 103.123 333.846 103.502 332.977 103.014 332.217 102.58 331.62 101.55 331.62 100.682 331.62 99.7602 332.217 99.4348 333.032 99.8686 333.846 100.302 334.389 101.333 334.389 102.255zM331.892 118.904V104.804L334.117 106.105V120.206L331.892 118.904zM337.103 111.637C337.103 110.173 337.103 108.98 336.995 107.732L338.949 108.871 339.057 111.258 339.112 111.312C339.709 110.336 341.12 109.848 343.183 110.986 344.866 111.963 347.526 114.674 347.526 119.501V127.961L345.3 126.66V118.525C345.3 116.247 344.54 113.915 342.478 112.722 341.012 111.854 339.872 112.396 339.492 113.644 339.383 113.915 339.329 114.295 339.329 114.728V123.243L337.103 121.941V111.637z" fill="#fff"/><path d="M352.466 83.327L348.612 85.5506V73.1855L352.466 70.9619V83.327Z" fill="url(#paint37_linear)"/><path d="M338.949 80.0184L348.612 85.5502V73.1851L338.949 67.6533V80.0184Z" fill="url(#paint38_linear)"/><path d="M342.803 65.4297L338.949 67.6532L348.612 73.185L352.412 71.0157L342.803 65.4297Z" fill="url(#paint39_linear)"/><path d="M341.392 133.872C332.543 128.774 325.377 116.409 325.377 106.213C325.377 99.3798 328.58 95.2581 333.412 94.8243C327.657 94.282 323.64 98.5664 323.64 106.213C323.64 116.409 330.806 128.774 339.655 133.872C342.586 135.553 345.3 136.204 347.635 135.987C345.68 135.824 343.563 135.119 341.392 133.872Z" fill="url(#paint40_linear)"/><path d="M161.161 64.833L104.867 97.3727V184.308L161.161 151.823V64.833Z" fill="url(#paint41_linear)"/><path d="M111.218 83.1638V170.153L186.785 126.496V39.4521L111.218 83.1638Z" fill="url(#paint42_linear)"/><path d="M142.65 69.9315L146.504 72.155V59.7899L142.65 57.5664V69.9315Z" fill="url(#paint43_linear)"/><path d="M156.167 66.5687L146.504 72.1547V59.7896L156.167 54.2578V66.5687Z" fill="url(#paint44_linear)"/><path d="M152.313 52.0342L156.167 54.2577L146.504 59.7895L142.65 57.5659L152.313 52.0342Z" fill="url(#paint45_linear)"/><path d="M166.482 82.0794C168.056 84.4657 168.925 87.7196 168.925 91.7871C168.925 104.532 159.967 120.097 148.893 126.442C146.396 127.852 144.007 128.72 141.836 129.045L141.89 131.486L135.104 128.069C131.25 126.062 128.861 121.507 128.861 114.89C128.861 102.146 137.819 86.5807 148.893 80.2355C154.376 77.09 159.37 76.7646 163.007 78.7712L169.25 81.9167L166.482 82.0794Z" fill="url(#paint46_linear)"/><path d="M155.19 83.3812C144.116 89.7807 135.159 105.291 135.159 118.036C135.159 130.781 144.116 135.987 155.19 129.588C166.265 123.188 175.222 107.678 175.222 94.9328C175.222 82.1881 166.265 76.9817 155.19 83.3812Z" fill="url(#paint47_linear)"/><path d="M139.176 115.704C139.176 125.9 146.342 130.021 155.19 124.924C164.039 119.826 171.205 107.461 171.205 97.2648C171.205 87.069 164.039 82.9473 155.19 88.0452C146.342 93.1431 139.176 105.508 139.176 115.704Z" fill="url(#paint48_linear)"/><path d="M162.464 111.256L160.293 108.924C160.13 108.707 159.75 108.707 159.424 108.87L158.501 109.413C157.741 110.443 156.167 112.233 154.05 108.545C151.933 104.911 153.29 102.796 154.05 101.766L154.539 100.464C154.701 100.03 154.701 99.4879 154.593 99.1625L153.344 95.5831C153.236 95.312 152.91 95.2577 152.639 95.4747L151.119 96.722C148.187 100.681 148.133 107.46 151.064 112.504C153.996 117.547 158.393 118.361 161.324 114.402L162.301 112.233C162.627 111.907 162.681 111.419 162.464 111.256Z" fill="#fff"/><path d="M161.325 85.9293C166.047 86.4174 169.25 90.4848 169.25 97.2639C169.25 107.46 162.085 119.825 153.236 124.923C151.064 126.17 149.002 126.875 147.102 127.038C149.49 127.255 152.204 126.604 155.136 124.923C163.985 119.825 171.15 107.46 171.15 97.2639C171.15 89.6171 167.133 85.387 161.325 85.9293Z" fill="url(#paint49_linear)"/><path d="M147.427 155.782L151.282 158.006V145.641L147.427 143.417V155.782Z" fill="url(#paint50_linear)"/><path d="M160.945 152.42L151.282 158.006V145.641L160.945 140.055V152.42Z" fill="url(#paint51_linear)"/><path d="M157.09 137.831L160.945 140.055L151.282 145.641L147.427 143.417L157.09 137.831Z" fill="url(#paint52_linear)"/><path d="M46.5635 183.875L50.4178 186.098V173.733L46.5635 171.51V183.875Z" fill="url(#paint53_linear)"/><path d="M60.0809 180.566L50.418 186.098V173.733L60.0809 168.201V180.566Z" fill="url(#paint54_linear)"/><path d="M56.2264 165.978L60.0807 168.201L50.4178 173.733L46.5635 171.563L56.2264 165.978Z" fill="url(#paint55_linear)"/><path d="M175.113 273.955C178.588 264.41 188.522 259.204 197.371 262.404C206.219 265.603 210.562 275.908 207.088 285.507C205.405 290.117 173.539 328.405 173.539 328.405C173.539 328.405 173.43 278.565 175.113 273.955Z" fill="url(#paint56_linear)"/><path d="M183.691 273.196C185.537 268.044 190.911 265.278 195.634 266.959C200.357 268.695 202.745 274.227 200.845 279.379C199.922 281.873 182.822 302.428 182.822 302.428C182.822 302.428 182.822 275.691 183.691 273.196Z" fill="url(#paint57_linear)"/><path d="M179.294 256.221C179.348 256.113 179.402 256.004 179.402 255.842L182.496 247.219L191.074 250.31C197.534 250.364 204.808 252.967 209.802 257.089L218.38 260.18L215.231 268.858C215.177 268.966 215.177 269.02 215.122 269.129L215.068 269.346C213.982 271.84 211.377 273.684 207.305 274.444C198.837 275.962 187.491 271.84 181.899 265.278C179.239 262.133 178.425 258.987 179.185 256.438L179.294 256.221Z" fill="url(#paint58_linear)"/><path d="M190.585 241.47C182.117 242.989 179.728 249.551 185.32 256.113C190.911 262.675 202.257 266.797 210.726 265.278C219.194 263.76 221.583 257.198 215.991 250.635C210.4 244.019 199.054 239.952 190.585 241.47Z" fill="url(#paint59_linear)"/><path d="M173.431 239.626L176.634 230.786L181.194 232.413C182.551 231.871 184.125 231.437 185.808 231.111C199.108 228.725 216.914 235.179 225.654 245.483C226.74 246.785 227.663 248.14 228.368 249.442L232.928 251.069L229.834 259.638C228.423 263.922 224.134 267.23 217.348 268.478C204.048 270.864 186.242 264.41 177.502 254.106C173.159 248.954 171.911 243.802 173.431 239.626Z" fill="url(#paint60_linear)"/><path d="M254.209 103.935C256.706 104.749 282.112 187.779 232.929 251.069H232.874C231.626 255.571 227.283 258.987 220.28 260.235C206.98 262.621 189.174 256.167 180.434 245.863C175.657 240.223 174.625 234.528 176.851 230.19C179.782 153.559 251.712 103.122 254.209 103.935Z" fill="url(#paint61_linear)"/><path d="M247.097 108.22C251.114 105.291 253.774 103.827 254.208 103.99C256.706 104.803 282.111 187.834 232.928 251.124H232.874C231.625 255.625 227.282 259.042 220.279 260.289C217.022 260.885 213.439 260.94 209.802 260.506C247.64 208.225 250.843 146.996 247.097 108.22Z" fill="url(#paint62_linear)"/><path d="M180.488 245.863C189.174 256.167 207.034 262.621 220.334 260.235C227.337 258.987 231.626 255.516 232.928 251.069H232.983L229.888 259.638C228.477 263.922 224.188 267.231 217.403 268.478C204.102 270.864 186.297 264.41 177.556 254.106C173.214 248.954 171.965 243.802 173.485 239.626L176.688 230.786H176.742C174.788 235.071 175.928 240.44 180.488 245.863Z" fill="url(#paint63_linear)"/><path d="M254.208 103.935C255.077 104.206 258.66 114.239 260.94 129.858C251.277 129.641 240.583 125.899 232.928 119.934C244.437 109.358 253.34 103.664 254.208 103.935Z" fill="url(#paint64_linear)"/><path d="M254.208 103.935C255.077 104.206 258.66 114.239 260.94 129.858C251.277 129.641 240.583 125.899 232.928 119.934C244.437 109.358 253.34 103.664 254.208 103.935Z" fill="url(#paint65_linear)"/><path d="M181.628 218.475C193.734 232.792 218.488 241.741 237 238.433C239.009 238.053 240.854 237.565 242.537 236.968C239.986 241.253 237.163 245.483 234.069 249.605C233.689 249.713 233.309 249.767 232.874 249.821C214.417 253.13 189.608 244.181 177.502 229.864C177.339 229.647 177.177 229.43 176.959 229.213C177.177 224.115 177.719 219.071 178.534 214.19C179.402 215.655 180.434 217.065 181.628 218.475Z" fill="url(#paint66_linear)"/><path d="M192.594 196.348L190.368 193.854C159.153 211.696 152.693 240.44 152.693 240.44L154.919 242.934L157.253 237.565C168.979 230.623 177.502 229.376 177.502 229.376L188.251 199.656L192.594 196.348Z" fill="url(#paint67_linear)"/><path d="M154.919 242.88C154.919 242.88 161.379 214.191 192.539 196.349L179.728 231.817C179.782 231.817 168.979 233.444 154.919 242.88Z" fill="url(#paint68_linear)"/><path d="M242.646 214.408L245.957 213.92C258.606 247.544 245.197 273.739 245.197 273.739L241.886 274.227L243.514 268.641C238.9 255.842 233.146 249.388 233.146 249.388L243.894 219.669L242.646 214.408Z" fill="url(#paint69_linear)"/><path d="M241.886 274.227C241.886 274.227 255.294 248.033 242.646 214.408L229.834 249.877C229.834 249.877 237.163 258.011 241.886 274.227Z" fill="url(#paint70_linear)"/><path d="M213.82 159.795C208.228 165.273 205.243 175.848 207.197 183.441C209.151 191.033 215.231 192.714 220.823 187.237C226.414 181.759 229.4 171.184 227.446 163.591C225.491 155.999 219.411 154.318 213.82 159.795Z" fill="url(#paint71_linear)"/><path d="M212.897 156.324C205.894 163.212 202.148 176.445 204.591 185.99C207.034 195.535 214.688 197.65 221.745 190.762C228.748 183.875 232.494 170.642 230.051 161.097C227.608 151.606 219.954 149.437 212.897 156.324Z" fill="url(#paint72_linear)"/><path d="M213.82 159.795C208.228 165.273 205.243 175.848 207.197 183.441C209.151 191.033 215.231 192.714 220.823 187.237C226.414 181.759 229.4 171.184 227.446 163.591C225.491 155.999 219.411 154.318 213.82 159.795Z" fill="url(#paint73_linear)"/><path d="M211.377 162.777L220.551 187.508C219.411 188.592 218.217 189.351 217.022 189.84L208.771 167.604C209.477 165.869 210.345 164.242 211.377 162.777Z" fill="url(#paint74_linear)"/><path d="M219.845 156.649L227.065 176.065C226.251 178.993 225.003 181.759 223.428 184.091L214.254 159.361C216.1 157.734 218.054 156.812 219.845 156.649Z" fill="url(#paint75_linear)"/><path d="M213.819 159.796C217.131 156.596 220.551 155.891 223.265 157.355C220.877 156.921 218.162 157.898 215.557 160.446C209.965 165.924 206.979 176.499 208.934 184.092C209.748 187.238 211.268 189.298 213.168 190.383C210.454 189.895 208.282 187.509 207.251 183.495C205.242 175.849 208.228 165.273 213.819 159.796Z" fill="url(#paint76_linear)"/><path d="M221.746 190.763C228.748 183.875 232.494 170.642 230.051 161.097C229.02 157.03 227.011 154.372 224.514 153.125C227.771 153.884 230.431 156.813 231.68 161.694C234.123 171.185 230.377 184.472 223.374 191.359C219.357 195.318 215.123 196.24 211.757 194.559C214.797 195.264 218.38 194.071 221.746 190.763Z" fill="url(#paint77_linear)"/><path d="M248.237 127.69C248.074 120.748 247.694 114.186 247.097 108.166C243.351 110.878 238.465 114.837 232.928 119.935C237.325 123.351 242.645 126.009 248.237 127.69Z" fill="url(#paint78_linear)"/><path d="M215.177 367.995H205.134V375.045H205.188C205.188 375.642 205.568 376.239 206.382 376.727L235.968 393.81C237.705 394.84 240.8 394.678 242.808 393.539L271.417 377.052C272.449 376.51 272.937 375.805 273.1 375.1V367.67L263.111 368.049L242.32 356.064C240.583 355.034 237.488 355.196 235.48 356.335L215.177 367.995Z" fill="url(#paint79_linear)"/><path d="M242.754 393.485L271.363 376.998C272.394 376.456 272.883 375.751 273.046 375.046V367.724L263.057 367.995L242.265 356.01C241.342 355.468 240.04 355.251 238.791 355.359V394.461C240.148 394.515 241.614 394.19 242.754 393.485Z" fill="url(#paint80_linear)"/><path d="M206.816 365.718L235.425 349.231C237.434 348.092 240.528 347.984 242.265 348.96L271.851 366.043C273.588 367.074 273.371 368.809 271.362 370.002L242.754 386.489C240.745 387.628 237.651 387.736 235.914 386.76L206.328 369.677C204.59 368.646 204.808 366.911 206.816 365.718Z" fill="url(#paint81_linear)"/><path d="M156.439 406.23H147.536V412.467H147.59C147.59 413.009 147.916 413.551 148.622 413.931L174.679 429.008C176.199 429.875 178.914 429.821 180.705 428.736L205.894 414.202C206.762 413.66 207.251 413.063 207.36 412.467V405.904L198.565 406.23L180.271 395.654C178.751 394.787 176.036 394.841 174.245 395.926L156.439 406.23Z" fill="url(#paint82_linear)"/><path d="M180.759 428.737L205.948 414.202C206.816 413.66 207.305 413.064 207.414 412.467V406.013L198.619 406.284L180.325 395.709C179.51 395.221 178.37 395.058 177.23 395.113V429.605C178.479 429.605 179.782 429.333 180.759 428.737Z" fill="url(#paint83_linear)"/><path d="M149.11 404.278L174.299 389.743C176.09 388.713 178.804 388.604 180.324 389.472L206.382 404.549C207.902 405.416 207.739 407.043 206.002 408.02L180.813 422.554C179.021 423.584 176.307 423.693 174.787 422.825L148.73 407.748C147.101 406.827 147.318 405.308 149.11 404.278Z" fill="url(#paint84_linear)"/><path d="M273.534 328.894H262.134V336.866H262.243C262.243 337.625 262.731 338.276 263.6 338.818L297.149 358.18C299.157 359.318 302.577 359.21 304.858 357.854L337.321 339.144C338.461 338.493 339.058 337.68 339.221 336.92V328.46L327.875 328.948L304.315 315.336C302.306 314.197 298.886 314.305 296.606 315.661L273.534 328.894Z" fill="url(#paint85_linear)"/><path d="M304.749 357.8L337.212 339.089C338.352 338.439 338.949 337.625 339.112 336.866V328.568L327.766 328.894L304.206 315.335C303.175 314.739 301.709 314.468 300.243 314.576V358.939C301.817 358.884 303.5 358.559 304.749 357.8Z" fill="url(#paint86_linear)"/><path d="M264.088 326.345L296.551 307.635C298.831 306.279 302.306 306.17 304.26 307.309L337.809 326.67C339.817 327.809 339.546 329.816 337.266 331.172L304.749 349.828C302.469 351.184 298.994 351.292 297.04 350.153L263.491 330.792C261.537 329.653 261.808 327.646 264.088 326.345Z" fill="url(#paint87_linear)"/><path d="M271.038 210.34V328.893L299.918 345.543L328.907 328.893V210.34L299.918 193.637L271.038 210.34Z" fill="url(#paint88_linear)"/><path d="M271.038 210.341V328.894L299.918 345.543V227.045L271.038 210.341Z" fill="url(#paint89_linear)"/><path d="M299.918 345.543L328.907 328.894V210.341L299.918 227.045V345.543Z" fill="url(#paint90_linear)"/><path d="M215.394 299.282V368.266L239.063 381.879L262.732 368.266V299.282L239.063 285.615L215.394 299.282Z" fill="url(#paint91_linear)"/><path d="M239.063 381.879L262.732 368.266V299.391L239.063 313.003V381.879Z" fill="url(#paint92_linear)"/><path d="M215.394 299.391V368.266L239.063 381.879V313.003L215.394 299.391Z" fill="url(#paint93_linear)"/><path d="M154.431 369.406V406.121L177.502 419.354L200.52 406.121V369.406L177.502 356.119V356.064H177.448V356.119L154.431 369.406Z" fill="url(#paint94_linear)"/><path d="M177.503 419.354L200.52 406.121V369.405L177.448 382.638V419.354H177.503Z" fill="url(#paint95_linear)"/><path d="M154.431 369.405V406.121L177.502 419.354V382.638L154.431 369.405Z" fill="url(#paint96_linear)"/><path d="M406.536 239.898L394.647 188.539L396.113 183.658L392.693 183.062L360.718 248.629L363.704 250.148L366.418 247.544L406.536 239.898Z" fill="url(#paint97_linear)"/><path d="M235.86 459.106C303.718 426.187 362.184 339.523 379.23 234.203L392.041 233.118C369.35 343.699 306.866 431.556 235.86 459.106Z" fill="url(#paint98_linear)"/><path d="M235.86 459.107C303.718 426.187 365.17 341.042 382.215 235.721L395.027 234.637C372.39 345.218 306.866 431.556 235.86 459.107Z" fill="url(#paint99_linear)"/><path d="M409.522 241.416L396.113 183.658L363.704 250.148L409.522 241.416Z" fill="url(#paint100_linear)"/><defs><linearGradient id="paint0_linear" x1="244.001" y1="152.993" x2="244.001" y2="524.925" gradientUnits="userSpaceOnUse"><stop stop-color="#F3F3F3"/><stop offset="1" stop-color="#B2B3B4"/></linearGradient><linearGradient id="paint1_linear" x1="112.519" y1="369.366" x2="823.404" y2="369.366" gradientUnits="userSpaceOnUse"><stop stop-color="#F3F3F3"/><stop offset="1" stop-color="#B2B3B4"/></linearGradient><linearGradient id="paint2_linear" x1="69.129" y1="-50.95" x2="69.129" y2="701.343" gradientUnits="userSpaceOnUse"><stop stop-color="#3076FF"/><stop offset="1" stop-color="#EEF8FF"/></linearGradient><linearGradient id="paint3_linear" x1="859.138" y1="188.142" x2="223.732" y2="188.142" gradientUnits="userSpaceOnUse"><stop stop-color="#3076FF"/><stop offset="1" stop-color="#EEF8FF"/></linearGradient><linearGradient id="paint4_linear" x1="132.517" y1="-36.049" x2="46.954" y2="425.565" gradientUnits="userSpaceOnUse"><stop stop-color="#EDF3FF"/><stop offset="1" stop-color="#B2B3B4"/></linearGradient><linearGradient id="paint5_linear" x1="11.819" y1="206.185" x2="177.897" y2="452.296" gradientUnits="userSpaceOnUse"><stop stop-color="#EDF3FF"/><stop offset="1" stop-color="#B2B3B4"/></linearGradient><linearGradient id="paint6_linear" x1="293.267" y1="72.189" x2="349.513" y2="354.831" gradientUnits="userSpaceOnUse"><stop stop-color="#3076FF"/><stop offset="1" stop-color="#EEF8FF"/></linearGradient><linearGradient id="paint7_linear" x1="405.326" y1="-4.028" x2="405.326" y2="776.421" gradientUnits="userSpaceOnUse"><stop stop-color="#EDF3FF"/><stop offset="1" stop-color="#B2B3B4"/></linearGradient><linearGradient id="paint8_linear" x1="383.981" y1="10.48" x2="345.021" y2="128.667" gradientUnits="userSpaceOnUse"><stop stop-color="#F7A72E"/><stop offset="1" stop-color="#F06834"/></linearGradient><linearGradient id="paint9_linear" x1="106.74" y1="15.601" x2="139.181" y2="114.013" gradientUnits="userSpaceOnUse"><stop stop-color="#F7A72E"/><stop offset="1" stop-color="#F06834"/></linearGradient><linearGradient id="paint10_linear" x1="95.175" y1="210.627" x2="62.733" y2="112.214" gradientUnits="userSpaceOnUse"><stop stop-color="#F7A72E"/><stop offset="1" stop-color="#F06834"/></linearGradient><linearGradient id="paint11_linear" x1="433.372" y1="216.041" x2="496.539" y2="361.836" gradientUnits="userSpaceOnUse"><stop stop-color="#EDF3FF"/><stop offset="1" stop-color="#B2B3B4"/></linearGradient><linearGradient id="paint12_linear" x1="446.894" y1="254.659" x2="516.795" y2="402.563" gradientUnits="userSpaceOnUse"><stop stop-color="#EDF3FF"/><stop offset="1" stop-color="#B2B3B4"/></linearGradient><linearGradient id="paint13_linear" x1="170.938" y1="187.65" x2="-23.721" y2="95.753" gradientUnits="userSpaceOnUse"><stop stop-color="#02206B" stop-opacity=".2"/><stop offset=".837" stop-color="#263B8F" stop-opacity="0"/></linearGradient><linearGradient id="paint14_linear" x1="179.43" y1="190.452" x2="-55.971" y2="79.32" gradientUnits="userSpaceOnUse"><stop stop-color="#3076FF"/><stop offset="1" stop-color="#032E9B"/></linearGradient><linearGradient id="paint15_linear" x1="41.89" y1="1.955" x2="41.89" y2="135.058" gradientUnits="userSpaceOnUse"><stop stop-color="#F8A830"/><stop offset="1" stop-color="#F16736"/></linearGradient><linearGradient id="paint16_linear" x1="67.949" y1="100.291" x2="147.992" y2="180.412" gradientUnits="userSpaceOnUse"><stop stop-color="#F8A830"/><stop offset="1" stop-color="#F16736"/></linearGradient><linearGradient id="paint17_linear" x1="47.117" y1="-9.735" x2="47.117" y2="153.903" gradientUnits="userSpaceOnUse"><stop stop-color="#F8A830"/><stop offset="1" stop-color="#F16736"/></linearGradient><linearGradient id="paint18_linear" x1="47.148" y1="43.687" x2="47.148" y2="159.646" gradientUnits="userSpaceOnUse"><stop stop-color="#EDF3FF"/><stop offset="1" stop-color="#B2B3B4"/></linearGradient><linearGradient id="paint19_linear" x1="84.848" y1="99.118" x2="-41.887" y2="225.977" gradientUnits="userSpaceOnUse"><stop stop-color="#EDF3FF"/><stop offset="1" stop-color="#B2B3B4"/></linearGradient><linearGradient id="paint20_linear" x1="53.868" y1="-43.675" x2="53.868" y2="530.507" gradientUnits="userSpaceOnUse"><stop stop-color="#F8A830"/><stop offset="1" stop-color="#F16736"/></linearGradient><linearGradient id="paint21_linear" x1="53.281" y1="-10.07" x2="55.553" y2="284.872" gradientUnits="userSpaceOnUse"><stop stop-color="#EDF3FF"/><stop offset="1" stop-color="#B2B3B4"/></linearGradient><linearGradient id="paint22_linear" x1="3.312" y1="106.582" x2="62.491" y2="133.162" gradientUnits="userSpaceOnUse"><stop stop-color="#F8A830"/><stop offset="1" stop-color="#F16736"/></linearGradient><linearGradient id="paint23_linear" x1="352.077" y1="36.258" x2="538.818" y2="249.658" gradientUnits="userSpaceOnUse"><stop stop-color="#02206B" stop-opacity=".2"/><stop offset=".837" stop-color="#263B8F" stop-opacity="0"/></linearGradient><linearGradient id="paint24_linear" x1="325.47" y1="171.618" x2="529.618" y2="75.241" gradientUnits="userSpaceOnUse"><stop stop-color="#3076FF"/><stop offset="1" stop-color="#032E9B"/></linearGradient><linearGradient id="paint25_linear" x1="440.217" y1="39.447" x2="440.217" y2="146.678" gradientUnits="userSpaceOnUse"><stop stop-color="#EDF3FF"/><stop offset="1" stop-color="#B2B3B4"/></linearGradient><linearGradient id="paint26_linear" x1="405.355" y1="90.706" x2="522.55" y2="208.015" gradientUnits="userSpaceOnUse"><stop stop-color="#EDF3FF"/><stop offset="1" stop-color="#B2B3B4"/></linearGradient><linearGradient id="paint27_linear" x1="434.003" y1="-43.675" x2="434.003" y2="530.507" gradientUnits="userSpaceOnUse"><stop stop-color="#F8A830"/><stop offset="1" stop-color="#F16736"/></linearGradient><linearGradient id="paint28_linear" x1="439.701" y1="26.904" x2="427.582" y2="145.186" gradientUnits="userSpaceOnUse"><stop stop-color="#F8A830"/><stop offset="1" stop-color="#F16736"/></linearGradient><linearGradient id="paint29_linear" x1="446.195" y1="5.657" x2="446.195" y2="128.571" gradientUnits="userSpaceOnUse"><stop stop-color="#F8A830"/><stop offset="1" stop-color="#F16736"/></linearGradient><linearGradient id="paint30_linear" x1="422.13" y1="96.465" x2="348.215" y2="170.452" gradientUnits="userSpaceOnUse"><stop stop-color="#F8A830"/><stop offset="1" stop-color="#F16736"/></linearGradient><linearGradient id="paint31_linear" x1="441.367" y1="-5.138" x2="441.367" y2="145.973" gradientUnits="userSpaceOnUse"><stop stop-color="#F8A830"/><stop offset="1" stop-color="#F16736"/></linearGradient><linearGradient id="paint32_linear" x1="286.367" y1="56.013" x2="489.017" y2="258.862" gradientUnits="userSpaceOnUse"><stop stop-color="#02206B" stop-opacity=".2"/><stop offset=".837" stop-color="#263B8F" stop-opacity="0"/></linearGradient><linearGradient id="paint33_linear" x1="345.021" y1="-212.998" x2="345.021" y2="390.889" gradientUnits="userSpaceOnUse"><stop stop-color="#3076FF"/><stop offset="1" stop-color="#EEF8FF"/></linearGradient><linearGradient id="paint34_linear" x1="345.573" y1="35.827" x2="345.573" y2="141.218" gradientUnits="userSpaceOnUse"><stop stop-color="#EDF3FF"/><stop offset="1" stop-color="#B2B3B4"/></linearGradient><linearGradient id="paint35_linear" x1="311.309" y1="86.207" x2="426.494" y2="201.504" gradientUnits="userSpaceOnUse"><stop stop-color="#EDF3FF"/><stop offset="1" stop-color="#B2B3B4"/></linearGradient><linearGradient id="paint36_linear" x1="339.614" y1="-43.675" x2="339.614" y2="530.508" gradientUnits="userSpaceOnUse"><stop stop-color="#F8A830"/><stop offset="1" stop-color="#F16736"/></linearGradient><linearGradient id="paint37_linear" x1="350.517" y1="3.089" x2="350.517" y2="126.003" gradientUnits="userSpaceOnUse"><stop stop-color="#F8A830"/><stop offset="1" stop-color="#F16736"/></linearGradient><linearGradient id="paint38_linear" x1="326.452" y1="93.896" x2="252.537" y2="167.884" gradientUnits="userSpaceOnUse"><stop stop-color="#F8A830"/><stop offset="1" stop-color="#F16736"/></linearGradient><linearGradient id="paint39_linear" x1="345.689" y1="-7.707" x2="345.689" y2="143.404" gradientUnits="userSpaceOnUse"><stop stop-color="#F8A830"/><stop offset="1" stop-color="#F16736"/></linearGradient><linearGradient id="paint40_linear" x1="369.825" y1="12.258" x2="327.399" y2="145.726" gradientUnits="userSpaceOnUse"><stop stop-color="#F8A830"/><stop offset="1" stop-color="#F16736"/></linearGradient><linearGradient id="paint41_linear" x1="-15.522" y1="-23.808" x2="329.426" y2="321.48" gradientUnits="userSpaceOnUse"><stop stop-color="#02206B" stop-opacity=".2"/><stop offset=".837" stop-color="#263B8F" stop-opacity="0"/></linearGradient><linearGradient id="paint42_linear" x1="-10.436" y1="-54.489" x2="359.884" y2="316.195" gradientUnits="userSpaceOnUse"><stop stop-color="#3076FF"/><stop offset="1" stop-color="#EEF8FF"/></linearGradient><linearGradient id="paint43_linear" x1="144.583" y1="-10.319" x2="144.583" y2="112.595" gradientUnits="userSpaceOnUse"><stop stop-color="#F8A830"/><stop offset="1" stop-color="#F16736"/></linearGradient><linearGradient id="paint44_linear" x1="168.648" y1="80.488" x2="242.563" y2="154.476" gradientUnits="userSpaceOnUse"><stop stop-color="#F8A830"/><stop offset="1" stop-color="#F16736"/></linearGradient><linearGradient id="paint45_linear" x1="149.411" y1="-21.115" x2="149.411" y2="129.996" gradientUnits="userSpaceOnUse"><stop stop-color="#F8A830"/><stop offset="1" stop-color="#F16736"/></linearGradient><linearGradient id="paint46_linear" x1="149.075" y1="27.982" x2="149.075" y2="133.373" gradientUnits="userSpaceOnUse"><stop stop-color="#EDF3FF"/><stop offset="1" stop-color="#B2B3B4"/></linearGradient><linearGradient id="paint47_linear" x1="183.339" y1="78.361" x2="68.155" y2="193.659" gradientUnits="userSpaceOnUse"><stop stop-color="#EDF3FF"/><stop offset="1" stop-color="#B2B3B4"/></linearGradient><linearGradient id="paint48_linear" x1="155.183" y1="-43.675" x2="155.183" y2="530.507" gradientUnits="userSpaceOnUse"><stop stop-color="#F8A830"/><stop offset="1" stop-color="#F16736"/></linearGradient><linearGradient id="paint49_linear" x1="53.612" y1="22.029" x2="156.748" y2="107.048" gradientUnits="userSpaceOnUse"><stop stop-color="#F8A830"/><stop offset="1" stop-color="#F16736"/></linearGradient><linearGradient id="paint50_linear" x1="149.361" y1="75.51" x2="149.361" y2="198.423" gradientUnits="userSpaceOnUse"><stop stop-color="#F8A830"/><stop offset="1" stop-color="#F16736"/></linearGradient><linearGradient id="paint51_linear" x1="173.425" y1="166.317" x2="247.34" y2="240.305" gradientUnits="userSpaceOnUse"><stop stop-color="#F8A830"/><stop offset="1" stop-color="#F16736"/></linearGradient><linearGradient id="paint52_linear" x1="154.189" y1="64.714" x2="154.189" y2="215.826" gradientUnits="userSpaceOnUse"><stop stop-color="#F8A830"/><stop offset="1" stop-color="#F16736"/></linearGradient><linearGradient id="paint53_linear" x1="48.499" y1="103.64" x2="48.499" y2="226.554" gradientUnits="userSpaceOnUse"><stop stop-color="#F8A830"/><stop offset="1" stop-color="#F16736"/></linearGradient><linearGradient id="paint54_linear" x1="72.564" y1="194.447" x2="146.479" y2="268.435" gradientUnits="userSpaceOnUse"><stop stop-color="#F8A830"/><stop offset="1" stop-color="#F16736"/></linearGradient><linearGradient id="paint55_linear" x1="53.327" y1="92.844" x2="53.327" y2="243.955" gradientUnits="userSpaceOnUse"><stop stop-color="#F8A830"/><stop offset="1" stop-color="#F16736"/></linearGradient><linearGradient id="paint56_linear" x1="193.505" y1="272.88" x2="169.633" y2="339.111" gradientUnits="userSpaceOnUse"><stop stop-color="#F7A72E"/><stop offset="1" stop-color="#F06834"/></linearGradient><linearGradient id="paint57_linear" x1="201.328" y1="251.22" x2="185.654" y2="294.705" gradientUnits="userSpaceOnUse"><stop offset=".001" stop-color="#fff"/><stop offset=".952" stop-color="#F6A02F"/></linearGradient><linearGradient id="paint58_linear" x1="219.187" y1="270.387" x2="164.357" y2="250.585" gradientUnits="userSpaceOnUse"><stop stop-color="#3076FF"/><stop offset="1" stop-color="#EEF8FF"/></linearGradient><linearGradient id="paint59_linear" x1="217.337" y1="244.703" x2="171.299" y2="268.509" gradientUnits="userSpaceOnUse"><stop offset=".001" stop-color="#fff"/><stop offset=".952" stop-color="#F6A02F"/></linearGradient><linearGradient id="paint60_linear" x1="211.247" y1="266.412" x2="140.488" y2="115.627" gradientUnits="userSpaceOnUse"><stop stop-color="#3076FF"/><stop offset="1" stop-color="#EEF8FF"/></linearGradient><linearGradient id="paint61_linear" x1="462.088" y1="265.823" x2="138.826" y2="149.077" gradientUnits="userSpaceOnUse"><stop stop-color="#3076FF"/><stop offset="1" stop-color="#EEF8FF"/></linearGradient><linearGradient id="paint62_linear" x1="369.899" y1="208.34" x2="75.018" y2="152.307" gradientUnits="userSpaceOnUse"><stop stop-color="#3076FF"/><stop offset="1" stop-color="#EEF8FF"/></linearGradient><linearGradient id="paint63_linear" x1="151.146" y1="235.787" x2="235.168" y2="266.132" gradientUnits="userSpaceOnUse"><stop stop-color="#3076FF"/><stop offset="1" stop-color="#032E9B"/></linearGradient><linearGradient id="paint64_linear" x1="235.154" y1="110.079" x2="264.685" y2="120.744" gradientUnits="userSpaceOnUse"><stop stop-color="#F7A72E"/><stop offset="1" stop-color="#F06834"/></linearGradient><linearGradient id="paint65_linear" x1="230.91" y1="100.356" x2="271.15" y2="137.235" gradientUnits="userSpaceOnUse"><stop stop-color="#3076FF"/><stop offset="1" stop-color="#032E9B"/></linearGradient><linearGradient id="paint66_linear" x1="261.954" y1="259.21" x2="143.657" y2="206.659" gradientUnits="userSpaceOnUse"><stop offset=".001" stop-color="#3076FF" stop-opacity=".5"/><stop offset="1" stop-color="#EEF8FF" stop-opacity=".5"/></linearGradient><linearGradient id="paint67_linear" x1="173.847" y1="221.025" x2="143.632" y2="156.636" gradientUnits="userSpaceOnUse"><stop stop-color="#3076FF"/><stop offset="1" stop-color="#032E9B"/></linearGradient><linearGradient id="paint68_linear" x1="137.929" y1="206.726" x2="211.339" y2="233.238" gradientUnits="userSpaceOnUse"><stop stop-color="#3076FF"/><stop offset="1" stop-color="#032E9B"/></linearGradient><linearGradient id="paint69_linear" x1="166.047" y1="223.365" x2="275.584" y2="252.579" gradientUnits="userSpaceOnUse"><stop stop-color="#3076FF"/><stop offset="1" stop-color="#032E9B"/></linearGradient><linearGradient id="paint70_linear" x1="280.512" y1="258.119" x2="133.922" y2="205.178" gradientUnits="userSpaceOnUse"><stop stop-color="#3076FF"/><stop offset="1" stop-color="#032E9B"/></linearGradient><linearGradient id="paint71_linear" x1="176.985" y1="285.17" x2="231.051" y2="135.172" gradientUnits="userSpaceOnUse"><stop stop-color="#3076FF"/><stop offset="1" stop-color="#EEF8FF"/></linearGradient><linearGradient id="paint72_linear" x1="212.192" y1="172.596" x2="438.782" y2="213.027" gradientUnits="userSpaceOnUse"><stop stop-color="#F7A72E"/><stop offset="1" stop-color="#F06834"/></linearGradient><linearGradient id="paint73_linear" x1="337.663" y1="216.9" x2="155.929" y2="151.267" gradientUnits="userSpaceOnUse"><stop stop-color="#3076FF"/><stop offset="1" stop-color="#EEF8FF"/></linearGradient><linearGradient id="paint74_linear" x1="263.566" y1="281.406" x2="200.173" y2="146.317" gradientUnits="userSpaceOnUse"><stop stop-color="#3076FF"/><stop offset="1" stop-color="#EEF8FF"/></linearGradient><linearGradient id="paint75_linear" x1="271.941" y1="277.476" x2="208.548" y2="142.387" gradientUnits="userSpaceOnUse"><stop stop-color="#3076FF"/><stop offset="1" stop-color="#EEF8FF"/></linearGradient><linearGradient id="paint76_linear" x1="237.445" y1="151.242" x2="131.992" y2="256.117" gradientUnits="userSpaceOnUse"><stop stop-color="#3076FF"/><stop offset="1" stop-color="#EEF8FF"/></linearGradient><linearGradient id="paint77_linear" x1="190.918" y1="140.204" x2="239.969" y2="198.724" gradientUnits="userSpaceOnUse"><stop stop-color="#F7A72E"/><stop offset="1" stop-color="#F06834"/></linearGradient><linearGradient id="paint78_linear" x1="275.317" y1="107.313" x2="169.681" y2="148.048" gradientUnits="userSpaceOnUse"><stop stop-color="#3076FF"/><stop offset="1" stop-color="#032E9B"/></linearGradient><linearGradient id="paint79_linear" x1="239.118" y1="156.31" x2="239.118" y2="429.032" gradientUnits="userSpaceOnUse"><stop stop-color="#F3F0E2"/><stop offset="1" stop-color="#B3B4B4"/></linearGradient><linearGradient id="paint80_linear" x1="263.538" y1="206.328" x2="245.679" y2="579.364" gradientUnits="userSpaceOnUse"><stop stop-color="#F3F0E2"/><stop offset="1" stop-color="#B3B4B4"/></linearGradient><linearGradient id="paint81_linear" x1="214.857" y1="306.337" x2="367.298" y2="694.172" gradientUnits="userSpaceOnUse"><stop stop-color="#F3F3F3"/><stop offset="1" stop-color="#B2B3B4"/></linearGradient><linearGradient id="paint82_linear" x1="177.462" y1="156.31" x2="177.462" y2="429.033" gradientUnits="userSpaceOnUse"><stop stop-color="#F3F0E2"/><stop offset="1" stop-color="#B3B4B4"/></linearGradient><linearGradient id="paint83_linear" x1="201.995" y1="203.383" x2="184.135" y2="576.418" gradientUnits="userSpaceOnUse"><stop stop-color="#F3F0E2"/><stop offset="1" stop-color="#B3B4B4"/></linearGradient><linearGradient id="paint84_linear" x1="148.529" y1="332.408" x2="300.969" y2="720.243" gradientUnits="userSpaceOnUse"><stop stop-color="#F3F3F3"/><stop offset="1" stop-color="#B2B3B4"/></linearGradient><linearGradient id="paint85_linear" x1="300.641" y1="156.31" x2="300.641" y2="429.033" gradientUnits="userSpaceOnUse"><stop stop-color="#F3F0E2"/><stop offset="1" stop-color="#B3B4B4"/></linearGradient><linearGradient id="paint86_linear" x1="325.271" y1="209.284" x2="307.412" y2="582.319" gradientUnits="userSpaceOnUse"><stop stop-color="#F3F0E2"/><stop offset="1" stop-color="#B3B4B4"/></linearGradient><linearGradient id="paint87_linear" x1="281.503" y1="280.142" x2="433.944" y2="667.976" gradientUnits="userSpaceOnUse"><stop stop-color="#F3F3F3"/><stop offset="1" stop-color="#B2B3B4"/></linearGradient><linearGradient id="paint88_linear" x1="298.81" y1="261.475" x2="331.395" y2="490.565" gradientUnits="userSpaceOnUse"><stop stop-color="#3076FF"/><stop offset="1" stop-color="#032E9B"/></linearGradient><linearGradient id="paint89_linear" x1="285.482" y1="95.016" x2="285.487" y2="273.624" gradientUnits="userSpaceOnUse"><stop stop-color="#3076FF"/><stop offset="1" stop-color="#032E9B"/></linearGradient><linearGradient id="paint90_linear" x1="314.423" y1="375.349" x2="314.419" y2="206.536" gradientUnits="userSpaceOnUse"><stop stop-color="#3076FF"/><stop offset="1" stop-color="#032E9B"/></linearGradient><linearGradient id="paint91_linear" x1="230.142" y1="271.241" x2="262.726" y2="500.332" gradientUnits="userSpaceOnUse"><stop stop-color="#3076FF"/><stop offset="1" stop-color="#032E9B"/></linearGradient><linearGradient id="paint92_linear" x1="250.887" y1="430.488" x2="250.887" y2="261.675" gradientUnits="userSpaceOnUse"><stop stop-color="#3076FF"/><stop offset="1" stop-color="#032E9B"/></linearGradient><linearGradient id="paint93_linear" x1="227.216" y1="95.019" x2="227.216" y2="273.627" gradientUnits="userSpaceOnUse"><stop stop-color="#3076FF"/><stop offset="1" stop-color="#032E9B"/></linearGradient><linearGradient id="paint94_linear" x1="162.234" y1="280.901" x2="194.819" y2="509.991" gradientUnits="userSpaceOnUse"><stop stop-color="#3076FF"/><stop offset="1" stop-color="#032E9B"/></linearGradient><linearGradient id="paint95_linear" x1="188.962" y1="466.209" x2="188.962" y2="297.396" gradientUnits="userSpaceOnUse"><stop stop-color="#3076FF"/><stop offset="1" stop-color="#032E9B"/></linearGradient><linearGradient id="paint96_linear" x1="165.962" y1="95.019" x2="165.962" y2="273.627" gradientUnits="userSpaceOnUse"><stop stop-color="#3076FF"/><stop offset="1" stop-color="#032E9B"/></linearGradient><linearGradient id="paint97_linear" x1="372.341" y1="79.18" x2="386.307" y2="283.837" gradientUnits="userSpaceOnUse"><stop stop-color="#F8A830"/><stop offset="1" stop-color="#F16736"/></linearGradient><linearGradient id="paint98_linear" x1="296.077" y1="84.833" x2="309.864" y2="286.87" gradientUnits="userSpaceOnUse"><stop stop-color="#F8A830"/><stop offset="1" stop-color="#F16736"/></linearGradient><linearGradient id="paint99_linear" x1="308.18" y1="240.985" x2="393.409" y2="367.892" gradientUnits="userSpaceOnUse"><stop stop-color="#F8A830"/><stop offset="1" stop-color="#F16736"/></linearGradient><linearGradient id="paint100_linear" x1="382.761" y1="189.828" x2="470.041" y2="319.788" gradientUnits="userSpaceOnUse"><stop stop-color="#F8A830"/><stop offset="1" stop-color="#F16736"/></linearGradient></defs></svg>